<?xml version="1.0" standalone="no"?>
<!DOCTYPE svg PUBLIC "-//W3C//DTD SVG 20010904//EN"
 "http://www.w3.org/TR/2001/REC-SVG-20010904/DTD/svg10.dtd">
<svg version="1.0" xmlns="http://www.w3.org/2000/svg"
 width="1024.000000pt" height="1024.000000pt" viewBox="0 0 1024.000000 1024.000000"
 preserveAspectRatio="xMidYMid meet">
<metadata>
Created by potrace 1.10, written by Peter Selinger 2001-2011
</metadata>
<g transform="translate(0.000000,1024.000000) scale(0.100000,-0.100000)"
fill="#000000" stroke="none">
<path d="M1100 9771 c-49 -26 -83 -93 -77 -151 5 -59 30 -110 90 -184 100
-125 131 -201 153 -379 8 -67 21 -149 30 -181 46 -182 184 -345 375 -442 64
-32 67 -35 71 -74 2 -22 2 -40 0 -40 -3 0 -33 27 -69 60 -114 107 -236 159
-419 179 -130 15 -174 31 -264 96 -176 129 -174 128 -232 123 -42 -4 -57 -11
-80 -37 -15 -17 -28 -38 -28 -46 0 -12 -20 -15 -117 -15 l-118 0 120 -52 c77
-33 128 -61 143 -80 30 -35 67 -55 146 -78 136 -39 187 -77 287 -216 94 -131
193 -209 315 -248 l52 -17 -13 -43 c-28 -94 -28 -220 1 -318 5 -17 41 -18 583
-18 l578 0 11 53 c6 28 13 78 14 109 l3 56 65 6 c146 13 648 36 842 39 114 1
204 5 200 8 -14 13 -434 250 -437 247 -6 -6 31 -43 45 -46 13 -3 186 -103 285
-163 l30 -19 -40 0 c-22 0 -78 -2 -125 -4 -47 -3 -155 -8 -240 -11 -85 -4
-175 -9 -200 -10 -25 -2 -121 -7 -215 -10 -93 -4 -177 -11 -187 -16 -14 -8
-18 -5 -22 13 -2 13 -11 54 -19 91 -13 63 -13 68 2 62 9 -4 58 -22 109 -41
100 -37 108 -36 151 10 22 23 32 26 97 26 96 0 181 28 276 90 68 45 102 77
175 167 16 19 42 25 198 48 246 34 412 55 460 56 75 1 7 16 -250 55 -137 20
-263 39 -280 42 -27 4 -29 3 -16 -12 7 -9 26 -16 41 -16 15 0 92 -11 171 -25
79 -14 157 -25 173 -25 63 0 11 -12 -135 -31 -85 -11 -161 -21 -169 -24 -8 -2
-33 -7 -55 -10 -50 -6 -75 -11 -99 -21 -17 -7 -17 -5 -2 24 9 18 34 79 55 136
64 174 93 211 260 329 125 87 151 173 78 254 -64 69 -176 51 -252 -40 -19 -23
-45 -54 -57 -69 -21 -25 -37 -30 -175 -53 -84 -14 -157 -25 -161 -25 -13 0
-35 164 -34 243 1 87 9 111 90 282 63 132 67 144 67 212 0 80 -15 110 -75 151
-39 26 -116 30 -159 8 -77 -40 -112 -118 -131 -291 -12 -112 -23 -158 -52
-227 l-20 -48 -64 69 c-47 51 -84 79 -144 111 -120 62 -145 88 -207 217 -61
128 -90 156 -157 156 -76 0 -126 -53 -126 -135 0 -53 21 -94 81 -156 25 -26
55 -60 66 -75 32 -41 61 -140 72 -240 10 -87 41 -177 60 -177 6 0 11 5 11 11
0 6 15 -9 33 -32 17 -23 44 -51 59 -62 l28 -21 26 25 27 24 -28 -42 -27 -42
-22 26 c-19 22 -25 24 -44 14 -19 -10 -22 -9 -22 8 0 11 -13 32 -29 47 -17 15
-28 31 -25 36 7 11 -41 21 -66 13 -71 -22 -115 -102 -144 -257 -18 -96 -35
-141 -73 -199 -13 -21 -22 -42 -19 -48 4 -6 -1 -22 -10 -36 -16 -24 -16 -27 1
-45 10 -11 26 -20 35 -20 9 0 49 -16 90 -36 61 -30 77 -35 92 -25 23 15 38 7
31 -17 -4 -18 50 -82 69 -82 5 0 15 14 22 31 l13 31 7 -48 c6 -48 37 -94 63
-94 7 0 21 -4 31 -9 41 -21 72 -32 156 -56 48 -14 92 -25 96 -25 5 0 22 12 39
26 29 24 31 25 31 6 0 -11 6 -23 13 -26 6 -4 2 -4 -10 -2 -14 2 -35 -8 -62
-30 -21 -19 -45 -34 -53 -34 -19 0 -171 50 -184 61 -6 5 -18 3 -29 -5 -17 -12
-17 -19 -7 -71 16 -77 15 -207 -1 -270 -10 -39 -18 -51 -35 -53 -16 -2 -22 2
-22 15 -1 16 -1 17 -10 1 -9 -15 -49 -16 -470 -15 -253 1 -460 4 -460 7 0 3
-27 3 -61 0 -54 -5 -62 -4 -72 15 -15 26 -19 198 -6 255 6 25 11 58 12 73 1
15 7 31 13 35 6 4 24 31 40 61 15 29 61 88 101 130 40 42 73 82 73 90 0 8 3
11 7 8 3 -4 13 -1 21 6 8 6 25 13 36 13 12 1 55 13 96 26 41 14 102 26 135 27
72 2 102 20 123 72 9 25 18 35 23 28 19 -32 66 118 84 268 10 89 22 140 41
183 34 77 49 90 57 50 4 -16 11 -30 17 -30 14 0 12 20 -4 49 -13 23 -11 31 20
89 21 40 34 78 34 101 0 81 -82 145 -155 121 -63 -21 -97 -75 -129 -206 -24
-98 -59 -153 -142 -223 l-72 -59 -20 60 c-47 138 -142 252 -317 383 -131 97
-157 134 -209 282 -19 56 -44 119 -54 140 -48 92 -134 126 -212 84z m132 -68
c14 -16 31 -38 37 -50 21 -41 78 -213 71 -213 -4 0 -31 -16 -60 -36 -28 -19
-53 -34 -55 -32 -29 32 -108 144 -124 176 -47 92 -13 181 70 182 26 0 42 -7
61 -27z m2018 0 c14 -9 27 -18 28 -19 2 -1 10 -19 16 -39 18 -53 6 -101 -58
-238 -31 -64 -59 -129 -62 -144 -10 -42 -14 -46 -32 -30 -21 18 -77 37 -108
37 -13 0 -24 6 -24 13 0 24 13 28 32 10 10 -9 18 -14 18 -10 0 3 22 -1 50 -8
27 -7 52 -10 55 -5 6 9 -55 35 -108 44 -36 7 -37 9 -32 39 3 18 12 81 20 141
11 78 22 121 40 151 39 67 114 93 165 58z m-856 -32 c22 -19 119 -211 106
-211 -4 0 -17 -3 -27 -6 -16 -6 -15 -5 2 9 40 31 3 30 -41 -2 l-47 -32 -39 38
c-72 69 -93 121 -73 181 8 26 60 53 84 44 9 -3 24 -12 35 -21z m154 -255 c25
-27 28 -35 17 -40 -9 -3 -15 0 -15 9 0 22 -17 18 -64 -14 l-42 -29 -21 39
c-12 21 -18 39 -13 39 5 0 10 -5 12 -11 3 -8 18 -2 43 14 22 14 42 26 45 26 3
1 20 -14 38 -33z m-1183 -17 c23 -44 82 -106 145 -152 170 -124 240 -198 299
-314 38 -74 71 -198 71 -264 0 -42 -5 -53 -35 -84 -40 -39 -131 -95 -157 -95
-28 0 -165 98 -213 153 -90 103 -136 220 -155 392 -6 49 -12 104 -14 120 -4
30 0 33 77 75 48 26 75 46 65 48 -18 4 -110 -42 -129 -64 -13 -15 -29 -10 -29
11 0 7 12 16 27 20 27 7 83 41 95 59 15 23 -4 17 -63 -18 -34 -20 -63 -35 -64
-34 -1 2 -12 25 -24 53 -14 32 -18 51 -11 53 6 2 30 19 53 37 23 19 43 34 44
34 1 1 10 -13 18 -30z m1307 -65 c69 -35 171 -123 195 -169 10 -18 -4 -36
-118 -152 l-129 -132 -40 47 c-58 67 -80 120 -96 225 -7 51 -16 102 -19 113
-3 16 4 28 28 46 34 27 87 57 100 58 4 0 40 -16 79 -36z m-202 -19 c0 -8 -4
-15 -10 -15 -5 0 -10 7 -10 15 0 8 5 15 10 15 6 0 10 -7 10 -15z m-135 -70
c43 -42 34 -85 -44 -205 -19 -30 -36 -56 -36 -57 -1 -3 -96 27 -102 31 -5 4
40 162 53 187 17 34 61 69 86 69 10 0 30 -11 43 -25z m770 -16 c50 -19 51 -19
47 -59 -2 -22 -7 -40 -11 -40 -3 0 -30 9 -59 20 -55 21 -102 26 -102 11 0 -4
27 -14 60 -21 33 -7 63 -17 66 -21 2 -4 11 -6 19 -2 11 4 15 -2 15 -22 0 -26
-1 -27 -17 -13 -25 21 -132 56 -154 51 -27 -7 -23 -23 5 -23 14 0 56 -12 95
-26 80 -30 72 -12 96 -209 27 -214 -1 -390 -90 -570 -56 -112 -164 -245 -200
-245 -44 0 -275 80 -303 105 -22 20 -37 247 -23 353 24 191 96 318 282 502
101 100 131 136 150 182 27 64 25 63 124 27z m-182 -90 l-29 -30 0 35 c0 19 4
33 8 30 4 -3 16 -1 25 5 31 17 28 -9 -4 -40z m896 -114 c31 -16 41 -33 41 -71
0 -44 -29 -84 -88 -121 -161 -101 -217 -167 -276 -328 -51 -136 -91 -209 -154
-276 -92 -100 -201 -159 -322 -175 l-54 -7 51 64 c121 152 181 296 210 499 l8
55 85 30 c83 29 123 47 167 75 19 13 25 10 67 -24 30 -25 46 -32 46 -23 0 16
-55 67 -71 67 -6 0 -7 5 -3 11 4 7 20 -3 43 -25 36 -35 61 -46 61 -27 0 6 -20
24 -45 42 l-45 33 23 25 c13 14 45 54 71 89 46 60 101 101 139 102 10 0 31 -7
46 -15z m-1659 -35 c0 -5 -4 -10 -10 -10 -5 0 -10 5 -10 10 0 6 5 10 10 10 6
0 10 -4 10 -10z m61 -50 c5 0 6 7 3 15 -4 8 -1 15 6 15 8 0 10 -8 5 -22 -3
-13 -11 -42 -17 -65 -11 -47 -18 -52 -39 -26 -8 10 -9 14 -2 10 6 -4 14 -3 18
3 4 6 -13 19 -37 30 -36 16 -44 17 -46 5 -2 -8 -10 -15 -18 -15 -10 0 -7 10
12 39 l26 40 40 -15 c22 -8 44 -14 49 -14z m-138 -5 c-3 -9 -8 -14 -10 -11 -3
3 -2 9 2 15 9 16 15 13 8 -4z m412 -40 c32 -31 31 -59 0 -115 -14 -25 -39 -72
-55 -106 l-30 -60 -48 15 -48 16 13 75 c17 99 39 155 70 180 34 27 69 25 98
-5z m-440 7 c-6 -4 -22 -18 -37 -31 -16 -14 -28 -20 -28 -15 0 5 15 19 33 32
30 21 52 31 32 14z m1454 -38 c-49 -51 -93 -77 -184 -107 -44 -15 -83 -27 -88
-27 -4 0 -7 27 -7 61 0 46 3 60 13 56 7 -3 49 2 92 9 44 8 98 17 120 20 22 4
47 10 55 15 33 18 32 7 -1 -27z m-1373 -11 l67 -26 -7 -76 c-3 -42 -12 -98
-20 -126 -19 -72 -77 -206 -90 -210 -6 -1 -49 -7 -96 -12 -47 -6 -113 -21
-147 -35 l-63 -26 0 42 c0 38 5 44 57 86 91 72 98 87 98 193 1 51 6 100 11
110 8 15 111 105 121 107 2 0 33 -12 69 -27z m95 -6 c-10 -9 -11 -8 -5 6 3 10
9 15 12 12 3 -3 0 -11 -7 -18z m366 -16 c-35 -66 -73 -164 -88 -230 -17 -69
-20 -111 -17 -237 l3 -154 -27 28 c-27 26 -28 30 -29 157 -1 75 4 149 11 175
16 59 101 230 112 224 4 -3 8 8 8 25 0 23 4 29 15 24 9 -3 14 -8 12 -12z m923
0 c-5 -11 -15 -23 -22 -27 -7 -5 -8 -2 -3 7 21 37 44 55 25 20z m-1612 -19 c8
-6 10 -19 6 -41 -8 -38 -13 -35 -24 13 -8 37 -5 42 18 28z m1542 -37 c-38 -28
-40 -29 -40 -15 0 6 6 10 14 10 7 0 19 7 26 15 7 8 17 15 23 15 6 0 -4 -11
-23 -25z m-222 -58 c14 -16 14 -20 -6 -40 l-22 -21 1 54 c0 30 3 48 6 40 3 -8
13 -23 21 -33z m-2370 -29 c26 -17 65 -46 87 -62 22 -17 41 -31 43 -32 1 -1
-11 -24 -29 -52 l-31 -50 -47 14 c-25 8 -63 19 -84 26 -101 31 -143 142 -69
183 36 20 73 12 130 -27z m-218 -42 c0 -13 3 -31 6 -39 4 -10 -14 -5 -54 16
-33 17 -59 34 -57 37 2 3 26 6 54 8 48 2 51 1 51 -22z m1267 -43 c-3 -40 -32
-77 -89 -119 -28 -19 -53 -44 -55 -55 -6 -23 -8 -23 -33 -1 -11 9 -25 18 -30
18 -6 1 -14 2 -20 3 -25 3 -6 21 23 21 39 0 159 85 185 130 21 37 22 37 19 3z
m418 18 c3 -5 1 -12 -5 -16 -5 -3 -10 1 -10 9 0 18 6 21 15 7z m-1289 -29 c-4
-3 -14 2 -24 12 -16 18 -16 18 6 6 13 -6 21 -14 18 -18z m1364 -2 c0 -5 -2
-10 -4 -10 -3 0 -8 5 -11 10 -3 6 -1 10 4 10 6 0 11 -4 11 -10z m-45 -11 c42
-11 44 -13 38 -38 -3 -14 -6 -27 -7 -28 -1 -1 -24 6 -52 16 -46 15 -50 19 -43
39 10 26 7 25 64 11z m-1307 -22 l41 -23 -20 -30 c-11 -16 -24 -39 -30 -52
l-9 -23 -37 28 c-21 15 -39 28 -41 29 -2 1 51 93 54 94 1 0 20 -10 42 -23z
m1206 -16 c3 -5 -1 -11 -9 -14 -9 -4 -12 -1 -8 9 6 16 10 17 17 5z m-1146 -41
c-12 -16 -23 -30 -24 -30 -2 0 2 14 7 30 6 17 17 30 25 30 11 0 9 -8 -8 -30z
m1192 20 c12 -8 11 -10 -7 -10 -13 0 -23 5 -23 10 0 13 11 13 30 0z m-1030
-15 c168 -22 285 -75 397 -178 l32 -30 -77 -82 c-42 -45 -88 -104 -102 -132
l-25 -50 -38 13 c-129 46 -237 135 -333 275 -50 73 -51 76 -37 105 25 49 57
94 68 94 6 0 57 -7 115 -15z m1073 -30 l42 -12 3 -77 c2 -42 1 -76 -2 -76 -3
0 -21 9 -40 21 -20 11 -65 31 -100 43 l-64 23 35 51 c39 56 33 55 126 27z m47
15 c0 -5 -4 -10 -10 -10 -5 0 -10 5 -10 10 0 6 5 10 10 10 6 0 10 -4 10 -10z
m-1323 -77 c-3 -3 -11 -2 -17 2 -8 5 -7 11 2 22 12 15 13 14 16 -1 2 -10 1
-20 -1 -23z m1453 -37 c0 -8 -4 -17 -9 -21 -6 -3 -9 4 -8 15 1 23 17 28 17 6z
m810 -200 c0 -2 -8 -10 -17 -17 -16 -13 -17 -12 -4 4 13 16 21 21 21 13z"/>
<path d="M1130 9661 c-13 -26 -13 -67 2 -94 21 -40 110 -158 115 -153 3 3 -18
46 -47 95 -40 70 -52 100 -52 131 1 45 -3 49 -18 21z"/>
<path d="M3135 9644 c-30 -30 -44 -72 -64 -185 -11 -62 -19 -115 -17 -117 2
-2 16 47 30 109 15 61 37 134 50 160 25 53 25 57 1 33z"/>
<path d="M2304 9626 c-8 -32 18 -84 61 -126 51 -49 53 -30 5 38 -23 32 -43 71
-43 86 -2 33 -15 34 -23 2z m46 -78 l23 -33 -26 24 c-15 14 -27 28 -27 33 0
14 5 9 30 -24z"/>
<path d="M1308 9376 c-33 -18 -54 -43 -45 -52 5 -5 97 58 97 67 0 13 -10 10
-52 -15z"/>
<path d="M1356 9080 c14 -191 83 -343 208 -457 51 -47 141 -101 152 -91 8 8
-83 68 -92 60 -5 -4 -6 -3 -2 2 4 4 -22 41 -56 82 -93 109 -163 255 -202 419
l-14 60 6 -75z m92 -245 c42 -85 78 -138 126 -187 45 -47 33 -50 -17 -5 -62
54 -123 153 -158 256 -23 66 -24 89 -2 41 9 -19 32 -66 51 -105z"/>
<path d="M2505 9208 c11 -97 39 -174 85 -233 23 -30 44 -55 46 -55 14 0 -1 44
-31 90 -37 57 -70 147 -81 218 -11 68 -27 51 -19 -20z m94 -207 c13 -18 21
-34 19 -37 -7 -7 -64 78 -76 115 -18 51 -13 51 11 0 12 -25 33 -60 46 -78z"/>
<path d="M2226 9169 c-13 -30 -27 -70 -30 -89 -4 -22 7 -3 29 49 20 46 34 86
31 89 -3 3 -17 -19 -30 -49z"/>
<path d="M2783 8898 c-118 -126 -194 -323 -196 -508 -1 -95 14 -193 32 -204 3
-2 4 48 3 112 -2 64 1 143 8 176 27 136 101 326 164 419 31 45 29 47 -11 5z
m-106 -220 c-45 -120 -67 -230 -67 -331 0 -44 -2 -78 -5 -75 -7 7 -7 175 0
223 13 87 89 294 102 281 3 -3 -11 -47 -30 -98z"/>
<path d="M3011 8299 c-24 -37 -72 -98 -105 -135 -33 -37 -51 -62 -39 -56 36
20 129 130 163 193 17 33 30 62 28 63 -1 2 -23 -28 -47 -65z"/>
<path d="M3730 8982 c-36 -19 -154 -151 -145 -161 3 -3 36 27 73 65 37 39 81
80 97 92 37 26 22 28 -25 4z"/>
<path d="M3450 8732 c0 -14 83 -82 100 -82 9 1 -5 19 -33 45 -47 43 -67 54
-67 37z"/>
<path d="M3465 8666 c33 -30 62 -49 64 -43 5 14 -86 97 -107 97 -11 0 5 -20
43 -54z"/>
<path d="M3355 8329 c-21 -28 -63 -69 -92 -91 -29 -22 -50 -45 -46 -51 3 -6 1
-7 -6 -3 -12 7 -126 -63 -117 -71 8 -9 97 37 92 46 -4 5 -1 13 5 17 8 4 9 3 5
-4 -13 -21 9 -13 52 19 23 17 39 36 35 41 -3 6 -1 8 5 5 10 -7 119 130 110
138 -2 3 -22 -18 -43 -46z"/>
<path d="M2392 8842 c-20 -27 -47 -110 -39 -118 2 -2 9 15 16 38 7 24 22 58
33 76 24 39 17 43 -10 4z"/>
<path d="M2005 8795 c-25 -24 -45 -54 -45 -66 0 -16 8 -10 36 28 20 26 43 56
52 66 31 35 0 16 -43 -28z"/>
<path d="M730 8653 c0 -45 70 -95 163 -117 43 -10 32 1 -35 36 -84 44 -85 44
-68 22 14 -17 14 -18 -2 -6 -10 8 -16 17 -15 21 1 3 -8 19 -20 35 -20 25 -23
26 -23 9z"/>
<path d="M991 8534 c-34 -43 -25 -65 9 -24 17 19 30 38 30 42 0 16 -19 7 -39
-18z"/>
<path d="M1125 8370 c20 -36 110 -143 156 -184 50 -45 159 -106 188 -106 9 0
-9 11 -39 23 -59 24 -170 102 -170 119 0 6 10 3 23 -6 65 -47 127 -84 166 -99
69 -28 57 -14 -21 24 -39 19 -99 55 -132 81 -33 25 -65 44 -70 41 -5 -3 -6 -2
-3 4 3 5 -19 34 -50 64 -31 30 -52 47 -48 39z"/>
<path d="M2098 9312 c-26 -64 -76 -189 -112 -276 -37 -87 -66 -166 -66 -175 1
-26 25 23 81 164 28 72 59 146 69 165 10 19 31 68 46 108 15 39 31 72 37 72 5
0 6 -7 3 -16 -3 -8 -2 -13 3 -10 5 3 12 -5 15 -18 3 -13 12 -26 21 -29 11 -5
10 5 -7 46 -11 29 -23 60 -25 70 -3 9 -8 17 -12 17 -3 0 -27 -53 -53 -118z"/>
<path d="M1007 9116 c33 -25 162 -180 225 -271 114 -164 137 -199 135 -201 -1
-1 -63 2 -137 6 -74 5 -157 9 -185 9 -45 -1 -47 -2 -20 -10 47 -14 303 -30
337 -21 10 2 18 9 18 16 -1 16 -159 261 -195 300 -5 6 -22 27 -36 46 -15 19
-36 45 -48 57 -26 27 -27 37 -3 23 22 -12 137 -50 154 -50 7 0 8 3 3 9 -8 8
-69 32 -250 96 -18 7 -18 6 2 -9z"/>
<path d="M2008 8333 c12 -2 30 -2 40 0 9 3 -1 5 -23 4 -22 0 -30 -2 -17 -4z"/>
<path d="M2083 8333 c9 -2 25 -2 35 0 9 3 1 5 -18 5 -19 0 -27 -2 -17 -5z"/>
<path d="M1958 8323 c7 -3 16 -2 19 1 4 3 -2 6 -13 5 -11 0 -14 -3 -6 -6z"/>
<path d="M2168 8323 c7 -3 16 -2 19 1 4 3 -2 6 -13 5 -11 0 -14 -3 -6 -6z"/>
<path d="M370 8310 c0 -3 65 -70 144 -149 l144 -145 -69 -75 c-112 -124 -240
-294 -226 -302 29 -16 222 -41 342 -45 l130 -5 -50 21 c-62 25 -149 49 -238
64 l-69 12 102 119 c57 66 123 141 148 167 l45 47 -45 53 c-25 29 -63 78 -86
109 l-40 56 209 28 c115 16 209 32 209 36 0 4 -114 10 -252 14 -249 7 -398 5
-398 -5z m335 -35 c-93 -14 -115 -22 -115 -41 0 -15 45 -91 65 -109 26 -24 75
-94 75 -106 0 -8 -17 -32 -38 -54 -21 -22 -69 -76 -107 -120 -38 -44 -71 -82
-75 -85 -3 -3 -16 -19 -28 -36 -20 -30 -21 -32 -4 -47 9 -9 53 -23 97 -32 44
-9 85 -18 90 -20 19 -9 -131 3 -202 15 -69 12 -72 14 -61 34 17 31 147 193
207 256 80 84 79 78 8 156 -34 37 -93 98 -130 135 l-68 68 183 -1 c181 -1 182
-1 103 -13z"/>
<path d="M1850 8290 c-9 -6 -10 -10 -3 -10 6 0 15 5 18 10 8 12 4 12 -15 0z"/>
<path d="M2260 8296 c0 -2 7 -7 16 -10 8 -3 12 -2 9 4 -6 10 -25 14 -25 6z"/>
<path d="M1800 8259 c-22 -18 -22 -19 -3 -10 12 6 25 16 28 21 9 15 3 12 -25
-11z"/>
<path d="M2320 8268 c3 -3 28 -23 55 -43 29 -22 41 -28 28 -14 -12 13 -37 33
-55 43 -18 11 -31 17 -28 14z"/>
<path d="M1720 8195 c-24 -25 -42 -45 -39 -45 3 0 25 20 49 45 24 25 42 45 39
45 -3 0 -25 -20 -49 -45z"/>
<path d="M2126 8162 c-2 -4 10 -6 28 -4 42 5 66 -18 66 -62 0 -37 -14 -53 -57
-66 -22 -7 -24 -8 -7 -9 12 -1 33 8 48 20 52 41 23 129 -43 129 -17 0 -32 -4
-35 -8z"/>
<path d="M2096 8134 c-13 -33 -6 -71 17 -90 l22 -19 -19 22 c-14 17 -17 32
-13 63 5 42 3 50 -7 24z"/>
<path d="M2484 8117 c16 -20 30 -37 33 -37 7 0 -36 58 -49 66 -7 4 1 -9 16
-29z"/>
<path d="M1659 8123 c-13 -16 -12 -17 4 -4 16 13 21 21 13 21 -2 0 -10 -8 -17
-17z"/>
<path d="M3895 8115 c-44 -8 -86 -14 -93 -14 -10 -1 -8 -6 4 -18 10 -10 51
-70 92 -133 41 -63 95 -146 121 -185 25 -38 47 -73 49 -76 1 -3 -108 -21 -243
-40 -135 -19 -245 -36 -245 -39 0 -6 622 -1 628 5 2 2 -66 106 -152 231 -86
124 -155 228 -154 229 2 1 22 12 46 24 38 19 54 33 35 30 -5 -1 -44 -7 -88
-14z m35 -122 c34 -54 102 -154 150 -223 49 -69 87 -127 85 -128 -2 -2 -61 -5
-132 -7 -109 -3 -119 -2 -68 7 142 22 143 24 62 150 -84 130 -140 223 -139
225 1 2 -10 15 -24 30 -18 20 -21 28 -12 35 7 4 14 8 14 8 1 0 30 -44 64 -97z"/>
<path d="M1048 7942 c-102 -87 -198 -168 -214 -180 -22 -17 -24 -22 -9 -18 11
3 43 10 70 16 183 40 545 133 545 141 0 11 -6 11 -52 -1 -20 -6 -74 -19 -120
-29 -46 -10 -128 -31 -183 -45 -55 -15 -120 -31 -145 -36 l-44 -8 74 68 c41
37 76 67 78 65 1 -1 17 12 35 29 18 17 61 57 97 88 36 31 62 59 59 63 -4 3
-90 -65 -191 -153z"/>
<path d="M1620 8059 c-7 -11 -10 -23 -7 -25 2 -2 9 7 15 21 14 30 7 33 -8 4z"/>
<path d="M2370 8063 c-22 -8 -50 -34 -50 -47 0 -6 7 -1 15 11 35 50 110 32
118 -29 l4 -33 1 32 c3 47 -44 82 -88 66z"/>
<path d="M2321 7978 c-1 -27 35 -58 67 -58 18 0 36 9 48 23 19 22 19 22 -2 5
-21 -19 -60 -23 -81 -10 -7 4 -16 19 -22 32 -7 18 -10 20 -10 8z"/>
<path d="M1577 7951 c-4 -17 -3 -21 5 -13 5 5 8 16 6 23 -3 8 -7 3 -11 -10z"/>
<path d="M2571 7944 c0 -11 3 -14 6 -6 3 7 2 16 -1 19 -3 4 -6 -2 -5 -13z"/>
<path d="M2582 7890 c0 -14 2 -19 5 -12 2 6 2 18 0 25 -3 6 -5 1 -5 -13z"/>
<path d="M1572 7770 c0 -14 2 -19 5 -12 2 6 2 18 0 25 -3 6 -5 1 -5 -13z"/>
<path d="M2582 7760 c0 -14 2 -19 5 -12 2 6 2 18 0 25 -3 6 -5 1 -5 -13z"/>
<path d="M1581 7724 c0 -11 3 -14 6 -6 3 7 2 16 -1 19 -3 4 -6 -2 -5 -13z"/>
<path d="M517 7426 c-92 -25 -138 -80 -139 -164 0 -94 48 -143 179 -182 76
-22 97 -41 91 -83 -4 -30 -45 -49 -93 -43 -30 4 -49 14 -73 41 l-33 36 -50
-43 -50 -42 38 -38 c48 -49 120 -72 207 -66 120 8 187 66 193 166 7 95 -45
151 -172 192 -64 20 -105 48 -105 71 0 5 9 18 20 29 28 28 79 26 125 -6 l38
-26 45 45 c25 26 42 50 38 56 -14 22 -102 59 -156 65 -33 3 -74 0 -103 -8z
m170 -27 c15 -6 36 -17 45 -26 16 -15 16 -17 -9 -44 l-27 -28 -37 20 c-58 29
-109 25 -143 -10 -22 -23 -27 -36 -22 -55 7 -30 56 -66 96 -73 88 -13 163 -73
176 -139 7 -39 -16 -112 -44 -136 -55 -48 -180 -58 -265 -20 -72 32 -83 65
-30 93 22 12 27 11 37 -2 17 -25 72 -49 108 -49 18 0 48 9 66 20 25 15 32 26
32 51 0 16 -4 38 -9 48 -10 17 -74 49 -146 71 -59 18 -85 38 -101 75 -26 63
-13 139 30 174 44 37 181 54 243 30z"/>
<path d="M3885 7431 c-109 -28 -170 -117 -145 -210 20 -74 71 -115 175 -140
70 -17 95 -36 95 -70 0 -33 -15 -49 -58 -57 -42 -9 -97 12 -125 47 l-22 29
-47 -38 c-26 -20 -46 -44 -45 -52 3 -21 82 -78 125 -90 47 -13 136 -13 184 0
108 30 159 150 108 250 -22 44 -79 81 -150 100 -76 20 -100 37 -100 70 0 20 7
33 21 41 29 15 92 6 128 -20 l29 -21 41 46 41 46 -25 19 c-55 44 -164 67 -230
50z m164 -37 c49 -19 56 -35 30 -68 l-20 -26 -39 20 c-22 11 -57 20 -79 20
-31 0 -44 -6 -65 -31 -23 -28 -25 -33 -13 -62 12 -29 64 -69 79 -61 3 3 31 -5
62 -16 58 -22 111 -72 122 -116 9 -36 -2 -94 -24 -123 -62 -84 -236 -93 -325
-18 l-38 32 30 26 30 26 23 -22 c39 -36 65 -46 113 -44 71 4 111 55 89 113 -9
22 -62 52 -109 61 -69 12 -126 51 -145 99 -31 83 12 171 100 199 34 12 142 6
179 -9z"/>
<path d="M830 7365 l0 -65 75 0 75 0 0 -227 0 -228 70 3 70 4 0 224 0 224 75
0 75 0 0 65 0 65 -220 0 -220 0 0 -65z m409 22 c16 -44 3 -57 -58 -57 -45 0
-59 -4 -68 -19 -9 -14 -13 -85 -13 -230 l-1 -211 -51 0 -50 0 3 58 c4 108 -1
367 -9 379 -4 6 -36 13 -72 15 l-65 4 -3 36 c-4 46 -7 45 211 46 163 1 168 0
176 -21z"/>
<path d="M1350 7141 l0 -291 73 0 72 0 -3 95 -3 95 36 0 c36 0 37 -1 81 -95
l44 -95 80 0 c44 0 80 3 80 7 0 4 -25 50 -55 103 l-55 97 39 41 c86 91 65 257
-39 309 -28 14 -68 19 -192 21 l-158 4 0 -291z m342 245 c47 -22 78 -83 78
-150 0 -56 -20 -102 -60 -141 -17 -16 -30 -32 -30 -37 0 -4 19 -43 43 -86 24
-43 42 -83 39 -90 -4 -13 -70 -16 -90 -4 -6 5 -29 44 -50 88 -43 87 -53 98
-95 103 -44 4 -56 -21 -57 -116 l0 -83 -50 0 -50 0 0 270 0 270 143 -3 c112
-2 150 -7 179 -21z"/>
<path d="M1487 7313 c-12 -14 -17 -37 -17 -84 0 -92 11 -104 91 -96 80 7 109
34 109 101 0 61 -32 88 -108 94 -47 3 -60 1 -75 -15z m145 -30 c23 -21 23 -74
1 -101 -14 -16 -32 -22 -78 -24 l-60 -2 -3 79 -3 78 62 -7 c36 -3 70 -13 81
-23z"/>
<path d="M1895 7140 l0 -290 73 0 72 0 0 290 0 290 -72 0 -73 0 0 -290z m112
258 c4 -7 8 -129 10 -270 l2 -258 -50 0 -49 0 0 270 0 270 39 0 c22 0 43 -6
48 -12z"/>
<path d="M2160 7140 l0 -290 70 0 70 0 0 110 c0 99 2 110 18 110 12 0 46 -39
95 -110 l77 -110 80 0 c44 0 80 3 80 6 0 3 -47 73 -104 156 l-104 151 91 121
c50 67 94 123 99 124 26 11 -2 18 -74 20 l-83 2 -85 -122 -85 -123 -3 123 -3
122 -69 0 -70 0 0 -290z m115 163 c0 -84 3 -106 18 -120 21 -21 23 -20 102 92
96 136 95 135 129 135 17 0 37 -4 45 -9 15 -10 6 -27 -79 -136 -65 -83 -71
-97 -57 -123 7 -11 47 -72 90 -135 42 -62 77 -119 77 -125 0 -8 -17 -12 -45
-12 -51 0 -61 8 -132 114 -59 89 -77 106 -108 106 -30 0 -34 -13 -37 -130 l-3
-85 -47 -3 -48 -3 0 271 0 271 48 -3 47 -3 0 -102z"/>
<path d="M2720 7140 l0 -290 193 0 192 0 3 63 3 62 -125 -3 -126 -4 0 56 0 56
110 0 110 0 0 63 0 62 -110 -3 -110 -3 0 50 0 51 125 0 125 0 0 65 0 65 -195
0 -195 0 0 -290z m358 228 l3 -38 -110 0 c-124 0 -131 -4 -131 -77 0 -66 13
-74 120 -76 l95 -2 0 -35 0 -35 -94 -3 c-52 -1 -101 -8 -108 -14 -16 -13 -17
-91 -3 -119 10 -17 22 -19 120 -19 l110 0 0 -40 0 -40 -167 2 -168 3 -2 249
c-1 137 2 256 7 266 8 14 29 16 167 16 l158 -1 3 -37z"/>
<path d="M3210 7141 l0 -291 70 0 70 0 0 96 0 95 37 -3 c36 -3 37 -5 77 -95
l41 -93 83 0 84 0 -42 78 c-24 42 -51 89 -61 103 l-19 27 39 39 c67 67 78 175
25 255 -41 64 -68 72 -246 76 l-158 4 0 -291z m327 248 c53 -22 83 -77 84
-153 1 -62 -10 -87 -59 -138 l-35 -37 41 -68 c22 -37 46 -80 51 -95 l11 -28
-54 0 c-59 0 -49 -10 -106 113 -22 47 -39 71 -56 78 -64 24 -78 7 -84 -98 l-5
-88 -47 -3 -48 -3 0 271 0 272 133 -3 c100 -1 142 -6 174 -20z"/>
<path d="M3342 7317 c-13 -15 -18 -132 -8 -165 6 -19 14 -22 57 -22 80 0 130
36 136 99 3 37 -23 78 -58 90 -43 15 -114 14 -127 -2z m138 -27 c15 -8 20 -21
20 -53 0 -62 -10 -71 -84 -77 l-66 -5 0 78 0 79 55 -6 c31 -3 65 -10 75 -16z"/>
<path d="M750 6570 l0 -100 44 0 c53 0 94 14 102 35 10 25 -5 65 -24 65 -16 1
-16 1 1 11 10 6 17 22 17 40 0 35 -27 49 -96 49 l-44 0 0 -100z m95 57 c24
-18 11 -37 -26 -37 -24 0 -29 4 -29 25 0 28 24 34 55 12z m13 -91 c5 -22 -13
-36 -45 -36 -19 0 -23 5 -23 31 0 28 2 30 32 27 23 -2 34 -9 36 -22z"/>
<path d="M1019 6641 c-48 -49 -38 -125 21 -156 80 -42 163 20 146 109 -14 76
-111 103 -167 47z m119 -29 c43 -56 -27 -134 -82 -91 -55 43 -17 129 49 112
11 -3 26 -12 33 -21z"/>
<path d="M1270 6643 c5 -16 18 -61 30 -100 18 -63 24 -73 44 -73 19 0 24 8 34
51 7 28 12 61 12 75 0 13 5 24 10 24 6 0 10 -10 10 -22 0 -13 6 -45 13 -73 11
-42 17 -50 37 -50 22 0 27 9 52 95 15 52 28 96 28 98 0 2 -10 2 -22 0 -19 -2
-25 -16 -42 -83 l-20 -80 -7 41 c-16 91 -29 124 -49 124 -15 0 -22 -15 -37
-81 l-19 -81 -19 81 c-16 72 -21 81 -41 81 -21 0 -22 -3 -14 -27z"/>
<path d="M1620 6570 l0 -100 64 0 c55 0 64 3 69 20 5 18 0 20 -44 20 l-49 0 0
80 c0 73 -2 80 -20 80 -19 0 -20 -7 -20 -100z"/>
<path d="M1850 6570 c0 -93 1 -100 20 -100 19 0 20 7 20 100 0 93 -1 100 -20
100 -19 0 -20 -7 -20 -100z"/>
<path d="M1990 6571 c0 -96 1 -101 21 -101 19 0 20 5 17 70 -2 39 -1 70 2 69
3 0 25 -31 49 -70 64 -99 76 -94 76 31 0 89 -2 100 -17 100 -15 0 -18 -10 -18
-66 l0 -66 -44 63 c-26 40 -51 65 -65 67 -20 3 -21 0 -21 -97z"/>
<path d="M2287 6650 c-48 -38 -44 -130 7 -165 27 -20 75 -19 98 2 17 15 18 15
18 0 0 -10 7 -17 15 -17 12 0 15 13 15 56 l0 55 -37 -3 c-26 -2 -38 -8 -38
-18 0 -10 8 -14 22 -12 18 3 21 -1 17 -13 -10 -25 -50 -37 -79 -23 -49 22 -44
104 8 122 22 8 31 6 51 -13 18 -17 29 -21 42 -13 16 9 15 12 -9 36 -33 33 -92
36 -130 6z"/>
<path d="M2696 6578 c-20 -51 -36 -96 -36 -100 0 -19 32 -6 42 17 9 21 18 25
54 25 36 0 43 -3 48 -25 4 -16 13 -25 27 -25 23 0 23 0 -23 123 -25 66 -33 77
-53 77 -20 0 -28 -12 -59 -92z m83 -20 c1 -5 -12 -8 -28 -8 l-29 0 16 41 16
42 12 -34 c7 -19 13 -37 13 -41z"/>
<path d="M2933 6570 l-1 -100 64 0 c57 0 64 2 64 20 0 17 -7 20 -45 20 l-45 0
0 80 c0 71 -2 80 -18 80 -17 0 -19 -10 -19 -100z"/>
<path d="M3160 6570 l0 -100 65 0 c58 0 65 2 65 20 0 17 -7 20 -45 20 l-45 0
0 80 c0 73 -2 80 -20 80 -19 0 -20 -7 -20 -100z"/>
<path d="M3375 6570 l0 -100 68 0 c62 0 67 2 67 21 0 20 -4 21 -50 17 -50 -5
-50 -5 -50 24 0 29 1 30 45 26 38 -3 45 0 45 14 0 15 -9 18 -45 18 -38 0 -45
3 -45 20 0 17 7 20 50 20 43 0 50 3 50 20 0 18 -7 20 -67 20 l-68 0 0 -100z"/>
<path d="M3604 6643 c8 -16 24 -41 35 -58 13 -19 21 -46 21 -72 0 -36 3 -43
20 -43 17 0 20 7 20 48 0 38 7 58 35 100 31 45 33 52 17 52 -12 0 -31 -17 -47
-41 l-27 -41 -25 41 c-15 26 -31 41 -44 41 -18 0 -19 -2 -5 -27z"/>
</g>
</svg>
